# xmcd
#
# Track frame offsets: 
#        150
#        5944
#        26007
#        41628
#        65429
#        79481
#        100517
#        117314
#        135128
#        150557
#        169197
#        189135
#        205964
#        223449
#        241322
#        258663
#        269473
#        287563
#        297688
#        318433
#
# Disc length: 4492 seconds
#
# Revision: 0
# Processed by: cddbd v1.5.2PL0 Copyright (c) Steve Scherf et al.
# Submitted via: ExactAudioCopy v0.99pb5
#
DISCID=2f118a14
DTITLE=Lil Wyte - Still Doubted?
DYEAR=2012
DGENRE=Rap
TTITLE0=Intro
TTITLE1=I Do It
TTITLE2=Stoner Night
TTITLE3=Sold My Soul Ft. Pastor Troy
TTITLE4=U Don't Know Me
TTITLE5=All Kinds Of Drugs Ft. Young Buck and Lil Will
TTITLE6=Show Some Skin Ft. Bubba Sparxxx
TTITLE7=I'm Going Home Ft. Big Lazy
TTITLE8=Call Us (Interlude) Ft. Thug Therapy
TTITLE9=M.E.M.P.H.I.S. Ft. Misc and Al Kapone
TTITLE10=Gun Down Ft. Frayser Boy and Partee
TTITLE11=Welcome 2 The Gathering Ft. Lord Infamous and Liquid Assassin
TTITLE12=Yea Hoe Ft. Shamrock
TTITLE13=Get Em Out Of Durr Ft. Partee
TTITLE14=Sike Ft. Miscellaneous
TTITLE15=Lesson Learned
TTITLE16=Money Train Gang
TTITLE17=Outro (Wyte Speaks)
TTITLE18=Money Ft. Miss Wyte and Project Pat (Bonus)
TTITLE19=Lost In My Zone (Bonus)
EXTD=
EXTT0=
EXTT1=
EXTT2=
EXTT3=
EXTT4=
EXTT5=
EXTT6=
EXTT7=
EXTT8=
EXTT9=
EXTT10=
EXTT11=
EXTT12=
EXTT13=
EXTT14=
EXTT15=
EXTT16=
EXTT17=
EXTT18=
EXTT19=
PLAYORDER=
